HIERARCHY
ROOT Hips
{
	OFFSET 0.00000 0.00000 0.00000
	CHANNELS 6 Xposition Yposition Zposition Zrotation Yrotation Xrotation 
	JOINT LHipJoint
	{
		OFFSET 0 0 0
		CHANNELS 3 Zrotation Yrotation Xrotation
		JOINT LeftHip
		{
			OFFSET 3.13874 -1.57224 1.49786
			CHANNELS 3 Zrotation Yrotation Xrotation
			JOINT LeftKnee
			{
				OFFSET 2.10955 -5.79594 0.00000
				CHANNELS 3 Zrotation Yrotation Xrotation
				JOINT LeftAnkle
				{
					OFFSET 2.41843 -6.64458 0.00000
					CHANNELS 3 Zrotation Yrotation Xrotation
					JOINT LeftToe
					{
						OFFSET 0.04713 -0.12948 1.66229
						CHANNELS 3 Zrotation Yrotation Xrotation
						End Site
						{
							OFFSET 0.00000 -0.00000 0.85167
						}
					}
				}
			}
		}
	}
	JOINT RHipJoint
	{
		OFFSET 0 0 0
		CHANNELS 3 Zrotation Yrotation Xrotation
		JOINT RightHip
		{
			OFFSET -3.13988 -1.57224 1.49786
			CHANNELS 3 Zrotation Yrotation Xrotation
			JOINT RightKnee
			{
				OFFSET -2.15006 -5.90725 0.00000
				CHANNELS 3 Zrotation Yrotation Xrotation
				JOINT RightAnkle
				{
					OFFSET -2.34496 -6.44273 0.00000
					CHANNELS 3 Zrotation Yrotation Xrotation
					JOINT RightToe
					{
						OFFSET -0.08699 -0.23900 1.55223
						CHANNELS 3 Zrotation Yrotation Xrotation
						End Site
						{
							OFFSET -0.00000 -0.00000 0.80281
						}
					}
				}
			}
		}
	}
	JOINT lowerback
	{
		OFFSET 0 0 0
		CHANNELS 3 Zrotation Yrotation Xrotation
		JOINT Chest
		{
			OFFSET 0.01292 1.96517 -0.16495
			CHANNELS 3 Zrotation Yrotation Xrotation
			JOINT Chest2
			{
				OFFSET 0.02122 1.88666 0.19706
				CHANNELS 3 Zrotation Yrotation Xrotation
				JOINT lowerneck
				{
					OFFSET 0 0 0
					CHANNELS 3 Zrotation Yrotation Xrotation
					JOINT Neck
					{
						OFFSET -0.01683 1.81591 0.07903
						CHANNELS 3 Zrotation Yrotation Xrotation
						JOINT Head
						{
							OFFSET 0.00815 1.74013 -0.47700
							CHANNELS 3 Zrotation Yrotation Xrotation
							End Site
							{
								OFFSET -0.00204 1.83225 -0.16933
							}
						}
					}
				}
				JOINT LeftCollar
				{
					OFFSET 0 0 0
					CHANNELS 3 Zrotation Yrotation Xrotation
					JOINT LeftShoulder
					{
						OFFSET 3.38482 1.41533 0.19802
CHANNELS 3 Zrotation Xrotation Yrotation
						JOINT LeftElbow
						{
OFFSET 0 -4.327120 0.000000
CHANNELS 3 Zrotation Xrotation Yrotation
							JOINT LeftWrist
							{
OFFSET 0 -3.285870 -0.000000
CHANNELS 3 Zrotation Xrotation Yrotation
								JOINT lhand
								{
									OFFSET 0 0 0
CHANNELS 3 Zrotation Xrotation Yrotation
									JOINT LFingers
									{
OFFSET 0 -0.433160 -0.000000
CHANNELS 3 Zrotation Xrotation Yrotation
										End Site
										{
OFFSET 0 -0.349220 -0.000000
										}
									}
								}
								JOINT LThumb
								{
OFFSET 0 0.000000 0.000000
CHANNELS 3 Zrotation Xrotation Yrotation
									End Site
									{
OFFSET 0 -0.354560 0.354560
									}
								}
							}
						}
					}
				}
				JOINT RightCollar
				{
					OFFSET 0 0 0
					CHANNELS 3 Zrotation Yrotation Xrotation
					JOINT RightShoulder
					{
						OFFSET -3.09725 1.62858 -0.14144
CHANNELS 3 Zrotation Xrotation Yrotation
						JOINT RightElbow
						{
OFFSET 0 -4.291040 0.000000
CHANNELS 3 Zrotation Xrotation Yrotation
							JOINT RightWrist
							{
OFFSET 0 -3.227200 -0.000000
CHANNELS 3 Zrotation Xrotation Yrotation
								JOINT rhand
								{
									OFFSET 0 0 0
CHANNELS 3 Zrotation Xrotation Yrotation
									JOINT RFingers
									{
OFFSET 0 -0.543620 -0.000000
CHANNELS 3 Zrotation Xrotation Yrotation
										End Site
										{
OFFSET 0 -0.438280 -0.000000
										}
									}
								}
								JOINT RThumb
								{
OFFSET 0 0.000000 0.000000
CHANNELS 3 Zrotation Xrotation Yrotation
									End Site
									{
OFFSET 0 -0.444970 0.444970
									}
								}
							}
						}
					}
				}
			}
		}
	}
}
MOTION
Frames: 4
Frame Time: 0.008333333333333333
6.414541 15.922796 5.120833 -178.606593 -44.751620 -171.640890 0.000000 0.000000 0.000000 -30.030107 -38.027357 12.890946 0.058154 -1.556151 -4.280491 -1.134155 22.287093 -21.852141 12.068646 -18.419365 -66.205979 0.000000 0.000000 0.000000 22.369196 11.416418 8.257049 -0.004522 -0.430630 1.183370 -6.353009 -11.269833 -51.911544 -0.737389 -5.485785 15.299459 -4.833755 0.871710 4.117874 -0.148549 0.035263 -10.468955 2.591999 0.276597 -13.798010 -3.296002 -5.388083 -14.805587 6.785805 -12.679692 36.172828 0.915863 -5.823956 16.080923 0.000000 0.000000 0.000000 3.830410 19.240469 -4.831288 19.401423 -29.914339 5.229486 28.267688 27.496902 -30.023448 0.000000 0.000000 0.000000 -7.125000 0.000000 0.000000 -3.580600 63.214684 1.589006 0.000000 0.000000 0.000000 -76.322966 -13.044769 -2.361560 -110.758383 -58.302482 -77.874262 -62.652474 20.051191 -7.093445 0.000000 0.000000 0.000000 7.125000 0.000000 0.000000 -24.145264 15.511178 -18.562303
6.438023 15.924189 5.107699 -178.569778 -44.892660 -171.684669 0.000000 0.000000 0.000000 -29.878520 -38.094071 12.832839 0.056661 -1.535853 -4.224473 -1.181865 22.408880 -21.567623 12.149738 -18.453095 -66.462538 0.000000 0.000000 0.000000 22.410389 11.200654 8.108348 -0.005567 -0.478290 1.314311 -6.250028 -11.226899 -51.526433 -0.741767 -5.501754 15.345378 -4.901464 0.867730 4.157823 -0.148848 0.019990 -10.476865 2.631998 0.277791 -13.833631 -3.235606 -5.404650 -14.850560 6.813814 -12.752475 36.221483 0.900590 -5.841468 16.121370 0.000000 0.000000 0.000000 3.896030 19.222808 -4.875665 19.372469 -29.878818 5.215059 28.639865 27.386906 -29.537544 0.000000 0.000000 0.000000 -7.125000 0.000000 0.000000 -2.875201 62.803653 1.249017 0.000000 0.000000 0.000000 -75.611298 -13.384708 -4.751679 -109.563348 -58.498247 -76.856385 -61.679223 20.422372 -6.261134 0.000000 0.000000 0.000000 7.125000 0.000000 0.000000 -23.911192 17.446934 -17.220109
6.461236 15.925071 5.094395 -178.557581 -45.027631 -171.728205 0.000000 0.000000 0.000000 -29.794180 -38.185086 12.843612 0.055193 -1.515799 -4.169211 -1.237082 22.583998 -21.314889 12.230878 -18.486411 -66.718682 0.000000 0.000000 0.000000 22.443953 11.011604 8.025456 -0.006271 -0.510278 1.402208 -6.131008 -11.302886 -51.131986 -0.720577 -5.421959 15.116676 -4.969953 0.870429 4.208789 -0.162259 0.010835 -10.489407 2.657031 0.281252 -13.882389 -3.182205 -5.428041 -14.831674 6.838678 -12.828086 36.240962 0.887560 -5.865219 16.131787 0.000000 0.000000 0.000000 3.974982 19.251458 -4.957382 19.369863 -29.875641 5.213769 28.928195 27.309034 -29.206195 0.000000 0.000000 0.000000 -7.125000 0.000000 0.000000 -2.355848 62.531627 1.004623 0.000000 0.000000 0.000000 -74.855124 -13.786411 -7.160810 -108.310693 -58.688722 -75.787177 -60.841686 21.042266 -5.117203 0.000000 0.000000 0.000000 7.125000 0.000000 0.000000 -23.872307 19.828783 -15.749879
6.484171 15.925419 5.080913 -178.571013 -45.156283 -171.771487 0.000000 0.000000 0.000000 -29.779852 -38.301401 12.926097 0.053750 -1.495999 -4.114735 -1.300115 22.814637 -21.095245 12.312070 -18.519296 -66.974395 0.000000 0.000000 0.000000 22.469574 10.850366 8.011078 -0.006619 -0.525949 1.445291 -5.995291 -11.502680 -50.727820 -0.672767 -5.242462 14.602066 -5.039254 0.880080 4.271225 -0.189323 0.008049 -10.506769 2.666483 0.287072 -13.944825 -3.136087 -5.458538 -14.746304 6.860270 -12.906641 36.230067 0.876863 -5.895467 16.110942 0.000000 0.000000 0.000000 4.067815 19.328321 -5.077975 19.394688 -29.906138 5.226157 29.129233 27.264608 -29.035753 0.000000 0.000000 0.000000 -7.125000 0.000000 0.000000 -2.030187 62.404318 0.859752 0.000000 0.000000 0.000000 -74.052613 -14.252415 -9.589734 -106.998050 -58.873691 -74.664528 -60.145441 21.921092 -3.648844 0.000000 0.000000 0.000000 7.125000 0.000000 0.000000 -24.036630 22.675056 -14.146350
